<svg width="223" height="33" viewBox="0 0 223 33" fill="none" xmlns="http://www.w3.org/2000/svg">
<path d="M40.8627 21.5932V0.0251274H46.9911L46.9412 5.36813H53.6085V11.1987H46.9412L46.9911 23.5886C46.9911 23.9103 47.021 24.222 47.0859 24.5135C47.1508 24.7749 47.2556 25.0211 47.4003 25.2674C47.545 25.5087 47.7646 25.7148 48.0541 25.8756C48.4733 26.1018 48.9074 26.2174 49.3566 26.2174C49.7409 26.2174 50.1102 26.142 50.4645 25.9963C50.8188 25.8505 51.1233 25.6947 51.3828 25.5338C51.7022 25.373 51.9916 25.1619 52.2511 24.9005L55.5798 28.8864C55.5149 28.9819 55.3203 29.2081 55.0009 29.565C54.6815 29.9218 54.2224 30.2837 53.6285 30.6557C53.0346 31.0276 52.301 31.3594 51.4327 31.6509C50.5643 31.9424 49.5512 32.0882 48.3934 32.0882C46.3323 32.0882 44.6605 31.4398 43.3779 30.143C42.0903 28.8462 41.3018 27.1171 41.0124 24.9458C40.9775 24.8804 40.9475 24.604 40.9176 24.1214C40.8876 23.6339 40.8677 22.7945 40.8677 21.5932" fill="white"/>
<path d="M54.7664 18.6829C54.7664 16.6121 55.0708 14.7473 55.6846 13.0936C56.2935 11.44 57.1618 10.0326 58.2897 8.86648C59.4126 7.70037 60.78 6.8107 62.3919 6.19246C63.9989 5.57925 65.8154 5.26762 67.8416 5.26762C70.831 5.26762 73.3861 5.94617 75.5121 7.30831L75.8515 5.41338H81.0117V31.8922H75.8515L75.5121 30.0475C73.3262 31.4096 70.7661 32.0882 67.8416 32.0882C65.8154 32.0882 63.9989 31.7715 62.3919 31.1382C60.785 30.5049 59.4176 29.6152 58.2897 28.4642C57.1618 27.3132 56.2935 25.9158 55.6846 24.2622C55.0758 22.6085 54.7664 20.7488 54.7664 18.6729M68.0812 26.0666C72.8072 26.0666 75.1727 23.6037 75.1727 18.6829C75.1727 13.7621 72.8072 11.249 68.0812 11.249C63.3551 11.249 60.9896 13.727 60.9896 18.6829C60.9896 23.6389 63.3551 26.0666 68.0812 26.0666Z" fill="white"/>
<path d="M83.7665 5.46364H89.0265L89.5106 7.30831C90.344 6.7906 91.4419 6.32315 92.7894 5.90094C94.1418 5.47872 95.6839 5.26762 97.4206 5.26762C101.408 5.26762 104.432 6.38347 106.488 8.62019C107.452 7.81095 108.749 7.05197 110.371 6.33823C111.993 5.62449 113.949 5.26762 116.23 5.26762C119.993 5.26762 122.892 6.2377 124.939 8.1829C126.98 10.1281 128.003 12.8976 128.003 16.4914V31.8922H121.445V17.4113C121.445 15.4058 121.066 13.8727 120.312 12.8222C119.559 11.7717 118.131 11.2439 116.045 11.2439C115.496 11.2439 114.773 11.3344 113.874 11.5103C112.976 11.6913 112.108 12.0381 111.269 12.5558C110.336 13.1087 109.717 13.8526 109.413 14.7925C109.109 15.7325 108.939 16.6071 108.909 17.4163V31.8972H102.636V17.4163C102.636 15.4108 102.251 13.8777 101.478 12.8272C100.704 11.7767 99.2771 11.249 97.1861 11.249C96.6371 11.249 95.9235 11.3294 95.0401 11.4902C94.1568 11.6511 93.2785 12.0079 92.4101 12.5608C91.961 12.8524 91.5917 13.1942 91.3022 13.5812C91.0128 13.9682 90.7782 14.3854 90.6035 14.8227C90.4289 15.26 90.2991 15.7073 90.2193 16.1597C90.1394 16.6121 90.0995 17.0343 90.0995 17.4213V31.9022H83.7815V5.46364H83.7665Z" fill="white"/>
<path d="M129.719 18.6829C129.719 16.6121 130.024 14.7473 130.638 13.0936C131.247 11.44 132.115 10.0326 133.243 8.86648C134.366 7.70037 135.733 6.8107 137.345 6.19246C138.952 5.57925 140.769 5.26762 142.795 5.26762C145.784 5.26762 148.344 5.94617 150.465 7.30831L150.805 5.41338H155.965V31.8922H150.805L150.465 30.0475C148.279 31.4096 145.719 32.0882 142.795 32.0882C140.769 32.0882 138.952 31.7715 137.345 31.1382C135.738 30.5049 134.371 29.6152 133.243 28.4642C132.115 27.3132 131.247 25.9158 130.638 24.2622C130.029 22.6085 129.719 20.7488 129.719 18.6729M143.029 26.0666C147.755 26.0666 150.121 23.6037 150.121 18.6829C150.121 13.7621 147.755 11.249 143.029 11.249C138.303 11.249 135.938 13.727 135.938 18.6829C135.938 23.6389 138.303 26.0666 143.029 26.0666Z" fill="white"/>
<path d="M158.66 21.5932V0.0251274H164.788L164.738 5.36813H171.406V11.1987H164.738L164.788 23.5886C164.788 23.9103 164.818 24.222 164.883 24.5135C164.948 24.7749 165.053 25.0211 165.197 25.2674C165.342 25.5087 165.562 25.7148 165.851 25.8756C166.27 26.1018 166.705 26.2174 167.154 26.2174C167.538 26.2174 167.907 26.142 168.262 25.9963C168.616 25.8505 168.92 25.6947 169.18 25.5338C169.499 25.373 169.789 25.1619 170.048 24.9005L173.377 28.8864C173.312 28.9819 173.117 29.2081 172.798 29.565C172.479 29.9218 172.019 30.2837 171.426 30.6557C170.832 31.0276 170.098 31.3594 169.23 31.6509C168.361 31.9424 167.348 32.0882 166.191 32.0882C164.134 32.0882 162.458 31.4398 161.175 30.143C159.887 28.8462 159.099 27.1171 158.81 24.9458C158.775 24.8804 158.745 24.604 158.715 24.1214C158.68 23.6339 158.665 22.7945 158.665 21.5932" fill="white"/>
<path d="M172.504 18.6829C172.504 16.6121 172.808 14.7473 173.422 13.0936C174.031 11.44 174.919 10.0326 176.077 8.86648C177.235 7.70037 178.632 6.8107 180.274 6.19246C181.916 5.57925 183.762 5.26762 185.823 5.26762C187.884 5.26762 189.731 5.57422 191.373 6.19246C193.015 6.8107 194.412 7.70037 195.57 8.86648C196.728 10.0326 197.611 11.44 198.225 13.0936C198.834 14.7473 199.143 16.6071 199.143 18.6829C199.143 20.7588 198.839 22.6186 198.225 24.2722C197.611 25.9259 196.728 27.3333 195.57 28.4994C194.412 29.6655 193.015 30.5552 191.373 31.1734C189.731 31.7866 187.884 32.0983 185.823 32.0983C183.762 32.0983 181.916 31.7916 180.274 31.1734C178.632 30.5602 177.235 29.6655 176.077 28.4994C174.919 27.3333 174.036 25.9259 173.422 24.2722C172.813 22.6186 172.504 20.7588 172.504 18.6829ZM185.818 26.2576C190.644 26.2576 193.055 23.7294 193.055 18.6779C193.055 13.6264 190.644 11.0982 185.818 11.0982C180.992 11.0982 178.582 13.6264 178.582 18.6779C178.582 23.7294 180.992 26.2576 185.818 26.2576Z" fill="white"/>
<path d="M200.146 23.4881H206.13C206.195 23.6841 206.33 23.9405 206.539 24.2672C206.749 24.5889 207.068 24.9055 207.502 25.2172C207.936 25.5238 208.505 25.7902 209.214 26.0164C209.923 26.2425 210.821 26.3582 211.914 26.3582C213.556 26.3582 214.833 26.147 215.747 25.7248C216.665 25.3026 217.039 24.6542 216.88 23.7796C216.655 22.6437 214.789 21.8344 211.285 21.3519C210.836 21.2866 210.262 21.2011 209.573 21.0855C208.88 20.9699 208.141 20.794 207.353 20.5527C206.564 20.3115 205.776 19.9847 204.987 19.5826C204.199 19.1755 203.49 18.6678 202.866 18.0496C202.237 17.4364 201.758 16.6975 201.419 15.838C201.079 14.9785 200.945 13.9682 201.01 12.8021C201.104 11.636 201.429 10.5905 201.973 9.67069C202.517 8.74584 203.25 7.9567 204.169 7.2882C205.087 6.62472 206.18 6.11203 207.447 5.75516C208.715 5.39829 210.107 5.22237 211.62 5.22237C213.132 5.25253 214.524 5.48374 215.792 5.90093C217.059 6.32314 218.157 6.9062 219.07 7.6501C219.989 8.39399 220.702 9.29371 221.216 10.3442C221.73 11.3997 222.005 12.5558 222.035 13.8174H216.051C216.051 13.2344 215.896 12.7569 215.592 12.3849C215.288 12.013 214.898 11.7114 214.434 11.4852C213.97 11.259 213.461 11.1032 212.917 11.0228C212.368 10.9424 211.874 10.9021 211.42 10.9021C211.001 10.9021 210.542 10.9323 210.043 10.9976C209.543 11.063 209.069 11.1786 208.62 11.3394C208.171 11.5003 207.792 11.7214 207.487 11.9979C207.183 12.2743 207.028 12.6362 207.028 13.0936C206.993 13.9984 207.412 14.5915 208.281 14.8679C209.149 15.1444 210.452 15.4108 212.188 15.6721C213.476 15.8682 214.769 16.1245 216.071 16.4512C217.374 16.7729 218.536 17.2504 219.569 17.8837C220.598 18.5171 221.436 19.3414 222.08 20.3617C222.724 21.3821 223.028 22.6688 222.998 24.222C222.963 25.192 222.719 26.1521 222.249 27.087C221.785 28.0269 221.092 28.8713 220.173 29.6152C219.255 30.3591 218.097 30.9573 216.7 31.4147C215.303 31.867 213.651 32.0932 211.754 32.0932C210.307 32.058 208.885 31.857 207.487 31.485C206.09 31.1131 204.852 30.5702 203.774 29.8565C202.696 29.1428 201.818 28.2631 201.144 27.2076C200.471 26.1571 200.131 24.9156 200.131 23.4931" fill="white"/>
<path d="M20.3764 7.20276H7.36606C7.36606 3.22691 10.565 0 14.5175 0H20.3764V7.20276Z" fill="white"/>
<path d="M20.3764 31.9223H14.5175C10.565 31.9223 7.36606 28.6954 7.36606 24.7196H20.3764V31.9223Z" fill="white"/>
<path d="M27.982 19.5625H0C0 15.5817 3.20394 12.3598 7.15147 12.3598H27.982V19.5625Z" fill="white"/>
</svg>
