<svg width="138" height="55" viewBox="0 0 138 55" fill="none" xmlns="http://www.w3.org/2000/svg">
<path d="M103.565 45.1248C92.2534 45.1248 83.0508 35.9226 83.0508 24.6113C83.0508 19.1906 85.1455 14.0783 88.949 10.2165C92.748 6.35962 97.8189 4.18729 103.228 4.09978C104.64 4.08375 105.8 5.2016 105.823 6.61272C105.846 8.02342 104.721 9.1852 103.31 9.20808C94.9561 9.34327 88.1598 16.253 88.1598 24.6113C88.1598 33.1055 95.0706 40.0159 103.565 40.0159C111.789 40.0159 118.548 33.5881 118.951 25.382C119.02 23.9733 120.223 22.8926 121.628 22.9559C123.037 23.0258 124.123 24.224 124.054 25.6331C123.516 36.5632 114.517 45.1248 103.565 45.1248Z" fill="white"/>
<ellipse cx="111.581" cy="8.14188" rx="3.64972" ry="3.6497" fill="#0084D6"/>
<ellipse cx="122.343" cy="3.6497" rx="3.64972" ry="3.6497" fill="#A638A6"/>
<ellipse cx="133.508" cy="7.53459" rx="3.90669" ry="3.90667" fill="#F3436E"/>
<ellipse cx="119.685" cy="15.7203" rx="5.19303" ry="5.193" fill="#06CFCB"/>
<path d="M20.5988 24.7861C17.3587 24.7861 15.3471 26.4254 14.204 28.3117C13.2657 26.6921 11.3937 24.7861 7.77285 24.7861C5.38761 24.7861 3.66927 25.6754 2.47171 26.8968V26.1959C2.47171 25.5133 1.91824 24.9602 1.23569 24.9602C0.553128 24.9602 0 25.5133 0 26.1959V43.595C0 44.2775 0.553128 44.8307 1.23569 44.8307C1.25614 44.8307 1.27485 44.8256 1.29464 44.8249C1.31468 44.8256 1.33347 44.8307 1.35351 44.8307C2.03611 44.8307 2.58957 44.2775 2.58957 43.595V32.5381C2.58957 32.4853 2.81232 27.2575 7.77285 27.2575C12.0794 27.2575 12.8199 31.047 12.9469 32.4138C12.9459 32.4553 12.9438 32.4979 12.9438 32.5381V43.595C12.9438 44.2775 13.4973 44.8307 14.1799 44.8307C14.185 44.8307 14.1894 44.8293 14.1945 44.8293C14.1996 44.8293 14.204 44.8307 14.2091 44.8307C14.8917 44.8307 15.4452 44.2775 15.4452 43.595V32.8917C15.4452 32.8038 15.4414 32.6308 15.4251 32.3985C15.4973 31.5623 16.0971 27.2575 20.5988 27.2575C25.7406 27.2575 25.7994 32.6614 25.7994 32.8917V43.595C25.7994 44.2775 26.3526 44.8307 27.0351 44.8307C27.7177 44.8307 28.2712 44.2775 28.2712 43.595V32.8917C28.2712 32.4901 28.2126 30.3839 27.058 28.3583C26.1288 26.7289 24.2538 24.7861 20.5988 24.7861Z" fill="white"/>
<path d="M45.5514 24.7861C44.8689 24.7861 44.3154 25.3393 44.3154 26.0218V36.0531V36.9945C44.3154 37.0466 44.0698 42.2255 38.5994 42.2255C32.9301 42.2255 32.8651 36.8712 32.8651 36.6434V26.0218C32.8651 25.3393 32.3116 24.7861 31.6294 24.7861C30.9468 24.7861 30.3933 25.3393 30.3933 26.0218V36.6434C30.3933 39.4291 32.1086 44.6965 38.5994 44.6965C41.1819 44.6965 43.0327 43.7911 44.3154 42.5548V44.7809C44.3154 48.5368 42.3164 52.5286 38.6117 52.5286C35.1611 52.5286 33.3324 50.4683 32.5497 49.2404C32.1825 48.6645 31.4185 48.4962 30.8429 48.8627C30.2676 49.2295 30.0984 49.9935 30.4656 50.5691C31.315 51.9015 33.8089 54.9996 38.6117 54.9996C43.9217 54.9996 46.7871 49.7346 46.7871 44.7809V36.9945V36.0531V26.0218C46.7871 25.3393 46.2337 24.7861 45.5514 24.7861Z" fill="white"/>
<path d="M79.8188 39.6037H59.1039C57.7347 39.6017 56.7432 39.5607 56.2987 39.0846C55.7799 38.5287 55.6682 37.1867 56.3188 36.6493C56.7789 36.2692 62.6488 31.1136 68.2507 26.1875C73.686 21.4252 79.25 16.539 80.0539 15.7897C82.028 13.9505 81.9442 10.7124 81.3883 9.30406C80.8325 7.89565 79.0903 4.70801 74.8651 4.70801H69.454L69.4625 4.724H54.7527C54.7527 4.724 52.4049 4.8708 52.4049 7.18175C52.4049 9.49307 54.4063 9.85986 54.4063 9.85986H72.9496C74.3188 9.86194 75.3103 9.90244 75.7548 10.3786C76.2735 10.9345 76.3853 12.2768 75.7347 12.8142C75.2746 13.194 69.4077 18.3469 63.8072 23.272C58.3706 28.0352 52.8038 32.9242 51.9993 33.6735C50.0255 35.5131 50.1093 38.7512 50.6652 40.1595C51.221 41.5679 52.9632 44.7552 57.1883 44.7552H62.5995L62.591 44.7392H79.4725C79.4725 44.7392 81.8206 44.5924 81.8206 42.2814C81.8206 39.9705 79.8188 39.6037 79.8188 39.6037Z" fill="white"/>
<path d="M130.871 18.214C130.871 16.7194 132.083 15.5078 133.577 15.5078C135.072 15.5078 136.284 16.7194 136.284 18.214V41.9785C136.284 43.4731 135.072 44.6847 133.577 44.6847C132.083 44.6847 130.871 43.4731 130.871 41.9785V18.214Z" fill="white"/>
</svg>
